<svg width="16" height="16" viewBox="0 0 16 16" fill="none" xmlns="http://www.w3.org/2000/svg">
<path d="M8.00001 14.6667C4.32668 14.6667 1.33334 11.6733 1.33334 7.99999C1.33334 4.32666 4.32668 1.33333 8.00001 1.33333C11.6733 1.33333 14.6667 4.02666 14.6667 7.33333C14.6667 9.53999 12.8733 11.3333 10.6667 11.3333H9.48668C9.30001 11.3333 9.15334 11.48 9.15334 11.6667C9.15334 11.7467 9.18668 11.82 9.24001 11.8867C9.51334 12.2 9.66668 12.5933 9.66668 13C9.66668 13.442 9.49108 13.8659 9.17852 14.1785C8.86596 14.4911 8.44204 14.6667 8.00001 14.6667ZM8.00001 2.66666C5.06001 2.66666 2.66668 5.05999 2.66668 7.99999C2.66668 10.94 5.06001 13.3333 8.00001 13.3333C8.18668 13.3333 8.33334 13.1867 8.33334 13C8.33127 12.9135 8.29814 12.8307 8.24001 12.7667C7.96668 12.46 7.82001 12.0667 7.82001 11.6667C7.82001 11.2246 7.9956 10.8007 8.30816 10.4881C8.62073 10.1756 9.04465 9.99999 9.48668 9.99999H10.6667C12.14 9.99999 13.3333 8.80666 13.3333 7.33333C13.3333 4.75999 10.94 2.66666 8.00001 2.66666Z" fill="#5B5F6E"/>
<path d="M4.33334 8.66667C4.88563 8.66667 5.33334 8.21896 5.33334 7.66667C5.33334 7.11439 4.88563 6.66667 4.33334 6.66667C3.78106 6.66667 3.33334 7.11439 3.33334 7.66667C3.33334 8.21896 3.78106 8.66667 4.33334 8.66667Z" fill="#5B5F6E"/>
<path d="M6.33333 6C6.88561 6 7.33333 5.55228 7.33333 5C7.33333 4.44772 6.88561 4 6.33333 4C5.78104 4 5.33333 4.44772 5.33333 5C5.33333 5.55228 5.78104 6 6.33333 6Z" fill="#5B5F6E"/>
<path d="M9.66667 6C10.219 6 10.6667 5.55228 10.6667 5C10.6667 4.44772 10.219 4 9.66667 4C9.11439 4 8.66667 4.44772 8.66667 5C8.66667 5.55228 9.11439 6 9.66667 6Z" fill="#5B5F6E"/>
<path d="M11.6667 8.66667C12.219 8.66667 12.6667 8.21896 12.6667 7.66667C12.6667 7.11439 12.219 6.66667 11.6667 6.66667C11.1144 6.66667 10.6667 7.11439 10.6667 7.66667C10.6667 8.21896 11.1144 8.66667 11.6667 8.66667Z" fill="#5B5F6E"/>
</svg>
